# xmcd
#
# Track frame offsets:
#	150
#	17837
#	34091
#	54449
#	67421
#	80021
#	93071
#	108673
#	120981
#	138643
#	154844
#	175177
#	188140
#	200740
#	213790
#	229375
#
# Disc length: 3222 seconds
#
# Revision: 1
# Processed by: cddbd v1.5.1PL0 Copyright (c) Steve Scherf et al.
# Submitted via: audiograbber 1.83.01
#
DISCID=e30c9410
DTITLE=House Party Karaoke - Best Country Party Songs
DYEAR=2003
DGENRE=Country
TTITLE0=Garth Brooks - Friends In Low Places (without lead vocals)
TTITLE1=Billy Ray Cyrus - Achy Breaky Heart (without lead vocals)
TTITLE2=Dixie Chicks - Goodbye Earl (without lead vocals)
TTITLE3=Shelly West - Jose Cuervo (without lead vocals)
TTITLE4=Roger Miller - King of the Road (without lead vocals)
TTITLE5=Merle Haggard - Okie From Muskogee (without lead vocals)
TTITLE6=Brooks and Dunn - Boot Scootin' Boogie (without lead vocals)
TTITLE7=Johnny Paycheck - Take This Job And Shove It (without lead vocals)
TTITLE8=Garth Brooks - Friends In Low Places (with lead vocals)
TTITLE9=Billy Ray Cyrus - Achy Breaky Heart (with lead vocals)
TTITLE10=Dixie Chicks - Goodbye Earl (with lead vocals)
TTITLE11=Shelly West - Jose Cuervo (with lead vocals)
TTITLE12=Roger Miller - King of the Road (with lead vocals)
TTITLE13=Merle Haggard - Okie From Muskogee (with lead vocals)
TTITLE14=Brooks and Dunn - Boot Scootin' Boogie (with lead vocals)
TTITLE15=Johnny Paycheck - Take This Job And Shove It (with lead vocals)
EXTD=
EXTT0=
EXTT1=
EXTT2=
EXTT3=
EXTT4=
EXTT5=
EXTT6=
EXTT7=
EXTT8=
EXTT9=
EXTT10=
EXTT11=
EXTT12=
EXTT13=
EXTT14=
EXTT15=
PLAYORDER=
